<svg xmlns="http://www.w3.org/2000/svg" xmlns:xlink="http://www.w3.org/1999/xlink" version="1.1" width="256" height="256" viewBox="0 0 256 256" xml:space="preserve">

<defs>
</defs>
<g style="stroke: none; stroke-width: 0; stroke-dasharray: none; stroke-linecap: butt; stroke-linejoin: miter; stroke-miterlimit: 10; fill: none; fill-rule: nonzero; opacity: 1;" transform="translate(1.4065934065934016 1.4065934065934016) scale(2.81 2.81)" >
	<path d="M 62.918 21.91 h -7.525 v -7.576 c 0 -2.061 -1.677 -3.738 -3.739 -3.738 H 38.346 c -2.062 0 -3.739 1.677 -3.739 3.738 v 7.576 h -7.525 v -7.576 c 0 -6.21 5.053 -11.263 11.264 -11.263 h 13.309 c 6.21 0 11.264 5.052 11.264 11.263 V 21.91 z" style="stroke: none; stroke-width: 1; stroke-dasharray: none; stroke-linecap: butt; stroke-linejoin: miter; stroke-miterlimit: 10; fill: rgb(115,69,46); fill-rule: nonzero; opacity: 1;" transform=" matrix(1 0 0 1 0 0) " stroke-linecap="round" />
	<path d="M 63.918 22.91 h -9.524 v -8.576 c 0 -1.51 -1.229 -2.738 -2.739 -2.738 H 38.346 c -1.51 0 -2.739 1.229 -2.739 2.738 v 8.576 h -9.524 v -8.576 c 0 -6.762 5.501 -12.263 12.263 -12.263 h 13.309 c 6.763 0 12.264 5.501 12.264 12.263 V 22.91 z M 56.394 20.91 h 5.524 v -6.576 c 0 -5.659 -4.604 -10.263 -10.264 -10.263 H 38.346 c -5.659 0 -10.263 4.604 -10.263 10.263 v 6.576 h 5.524 v -6.576 c 0 -2.613 2.126 -4.738 4.739 -4.738 h 13.309 c 2.613 0 4.739 2.125 4.739 4.738 V 20.91 z" style="stroke: none; stroke-width: 1; stroke-dasharray: none; stroke-linecap: butt; stroke-linejoin: miter; stroke-miterlimit: 10; fill: rgb(0,0,0); fill-rule: nonzero; opacity: 1;" transform=" matrix(1 0 0 1 0 0) " stroke-linecap="round" />
	<path d="M 81.459 86.929 H 8.541 C 4.376 86.929 1 83.552 1 79.387 v -51.19 c 0 -4.165 3.376 -7.541 7.541 -7.541 h 72.917 c 4.165 0 7.541 3.376 7.541 7.541 v 51.19 C 89 83.552 85.624 86.929 81.459 86.929 z" style="stroke: none; stroke-width: 1; stroke-dasharray: none; stroke-linecap: butt; stroke-linejoin: miter; stroke-miterlimit: 10; fill: rgb(115,69,46); fill-rule: nonzero; opacity: 1;" transform=" matrix(1 0 0 1 0 0) " stroke-linecap="round" />
	<path d="M 81.459 20.656 H 8.541 C 4.376 20.656 1 24.033 1 28.198 v 15.595 l 33.421 10 v -8.481 h 21.159 v 8.481 l 33.421 -10 V 28.198 C 89 24.033 85.624 20.656 81.459 20.656 z" style="stroke: none; stroke-width: 1; stroke-dasharray: none; stroke-linecap: butt; stroke-linejoin: miter; stroke-miterlimit: 10; fill: rgb(146,90,62); fill-rule: nonzero; opacity: 1;" transform=" matrix(1 0 0 1 0 0) " stroke-linecap="round" />
	<path d="M 81.459 87.929 H 8.542 C 3.832 87.929 0 84.098 0 79.388 v -51.19 c 0 -4.71 3.832 -8.542 8.542 -8.542 h 72.917 c 4.71 0 8.541 3.832 8.541 8.542 v 51.19 C 90 84.098 86.169 87.929 81.459 87.929 z M 8.542 21.656 C 4.935 21.656 2 24.591 2 28.198 v 51.19 c 0 3.606 2.935 6.541 6.542 6.541 h 72.917 c 3.606 0 6.541 -2.935 6.541 -6.541 v -51.19 c 0 -3.607 -2.935 -6.542 -6.541 -6.542 H 8.542 z" style="stroke: none; stroke-width: 1; stroke-dasharray: none; stroke-linecap: butt; stroke-linejoin: miter; stroke-miterlimit: 10; fill: rgb(0,0,0); fill-rule: nonzero; opacity: 1;" transform=" matrix(1 0 0 1 0 0) " stroke-linecap="round" />
	<path d="M 53.57 61.691 l -6.191 3.993 c -1.448 0.934 -3.309 0.934 -4.757 0 l -6.191 -3.993 c -1.253 -0.808 -2.01 -2.197 -2.01 -3.688 V 45.312 h 21.159 v 12.691 C 55.579 59.494 54.823 60.883 53.57 61.691 z" style="stroke: none; stroke-width: 1; stroke-dasharray: none; stroke-linecap: butt; stroke-linejoin: miter; stroke-miterlimit: 10; fill: rgb(253,181,46); fill-rule: nonzero; opacity: 1;" transform=" matrix(1 0 0 1 0 0) " stroke-linecap="round" />
	<path d="M 45 67.383 c -1.017 0 -2.034 -0.286 -2.92 -0.859 l -6.191 -3.992 c -1.545 -0.997 -2.468 -2.689 -2.468 -4.528 V 45.312 c 0 -0.552 0.448 -1 1 -1 h 21.159 c 0.553 0 1 0.448 1 1 v 12.691 c 0 1.839 -0.923 3.531 -2.468 4.528 l -6.19 3.993 C 47.034 67.097 46.017 67.383 45 67.383 z M 35.42 46.313 v 11.69 c 0 1.156 0.58 2.221 1.552 2.847 l 6.191 3.993 c 1.116 0.722 2.558 0.719 3.673 0.001 l 6.19 -3.994 l 0 0 c 0.972 -0.626 1.552 -1.69 1.552 -2.847 v -11.69 H 35.42 z" style="stroke: none; stroke-width: 1; stroke-dasharray: none; stroke-linecap: butt; stroke-linejoin: miter; stroke-miterlimit: 10; fill: rgb(0,0,0); fill-rule: nonzero; opacity: 1;" transform=" matrix(1 0 0 1 0 0) " stroke-linecap="round" />
	<path d="M 35.42 55.135 L 0 44.537 V 28.198 c 0 -4.71 3.832 -8.542 8.542 -8.542 h 72.917 c 4.71 0 8.541 3.832 8.541 8.542 v 16.339 L 54.579 55.135 v -8.823 H 35.42 V 55.135 z M 33.42 44.312 h 23.159 v 8.138 L 88 43.048 v -14.85 c 0 -3.607 -2.935 -6.542 -6.541 -6.542 H 8.542 C 4.935 21.656 2 24.591 2 28.198 v 14.85 l 31.42 9.401 V 44.312 z" style="stroke: none; stroke-width: 1; stroke-dasharray: none; stroke-linecap: butt; stroke-linejoin: miter; stroke-miterlimit: 10; fill: rgb(0,0,0); fill-rule: nonzero; opacity: 1;" transform=" matrix(1 0 0 1 0 0) " stroke-linecap="round" />
</g>
</svg>